:SAMPLES-PER-SECOND 30
:FULLY-SPECIFIED
:DEGREES
97
root  -25.7842 38.2341 -4.28684 65.5145 -85.2787 -72.1888
RightUpLeg  -22.9412 -10.9502 7.16705
RightLeg  28.7013 -3.81796 -2.49488
RightFoot  -0.0646276 0.715642 -7.17924
RightToes  5.82063e-011 0 -3.6325e-017
Spine  2.56907 -3.77505 8.7655
Spine1  11.7589 -4.66494 4.22379
HEad  -4.28473 6.73375 -8.11979
LeftShoulder1  8.73188 -11.9445 -49.3401
LeftArm  -10.6412 9.22985 -25.2706
LeftForeArm  23.8339 -31.0044 -5.44886
LeftHand  -0.244104 0.0205437 5.32207
RightShoulder  6.39911 9.73835 42.0544
RightArm  -10.2795 -21.5119 26.7735
RightForeArm  5.32596 5.36523 5.75108
RightHand  -1.02292 2.37756 -15.4152
LeftUpLeg  13.0786 7.53888 8.86409
LeftLeg  45.7677 1.44665 2.02116
LeftFoot  6.06659 1.34185 -9.05764
LeftToes  3.81955e-011 1.3492e-010 1.36421e-011
98
root  -27.306 38.3759 -4.39413 54.7527 -83.4869 -61.1641
RightUpLeg  -21.2017 -12.6152 8.01106
RightLeg  30.1698 -3.97857 -2.74442
RightFoot  -3.17283 0.426377 -6.27624
RightToes  5.82063e-011 0 -3.6325e-017
Spine  2.57319 -4.00149 10.6167
Spine1  12.0952 -4.57124 4.37301
HEad  -4.72628 5.85484 -7.44321
LeftShoulder1  8.90903 -12.1891 -49.5567
LeftArm  -5.66022 10.1637 -26.5715
LeftForeArm  21.2605 -26.8057 -4.59588
LeftHand  -0.244104 0.0205437 5.32207
RightShoulder  6.41777 9.73033 42.213
RightArm  -9.44397 -18.856 27.8874
RightForeArm  3.83285 8.508 6.39829
RightHand  -1.16736 3.06925 -16.1629
LeftUpLeg  5.01378 5.29813 9.54201
LeftLeg  56.8005 2.67304 4.92918
LeftFoot  10.8846 1.16408 -6.18846
LeftToes  3.81955e-011 1.3492e-010 1.36421e-011
99
root  -28.8768 38.7751 -4.4736 50.604 -82.952 -57.1615
RightUpLeg  -17.8551 -13.9177 7.72048
RightLeg  29.4749 -3.32397 -2.2835
RightFoot  -5.00393 0.288324 -5.82439
RightToes  5.82063e-011 0 -3.6325e-017
Spine  2.63498 -3.421 11.7975
Spine1  12.3705 -3.6432 3.55711
HEad  -5.17614 4.27535 -6.67625
LeftShoulder1  9.15158 -12.4608 -50.0403
LeftArm  -0.504008 10.6193 -27.6666
LeftForeArm  20.6614 -22.5305 -3.96637
LeftHand  -0.244104 0.0205437 5.32207
RightShoulder  6.4649 9.77501 42.3914
RightArm  -5.96729 -15.9329 28.674
RightForeArm  0.402901 12.7134 6.76579
RightHand  -1.23547 3.22632 -16.7865
LeftUpLeg  -1.72209 4.70169 9.29582
LeftLeg  64.0128 3.43539 8.24893
LeftFoot  8.60392 0.559621 -3.44837
LeftToes  3.81955e-011 1.3492e-010 1.36421e-011
100
root  -30.4628 39.2469 -4.5544 51.1822 -83.8132 -58.0239
RightUpLeg  -13.6877 -14.2916 6.56708
RightLeg  27.6594 -2.44655 -1.64173
RightFoot  -6.64101 0.184528 -5.56685
RightToes  5.82063e-011 0 -3.6325e-017
Spine  2.85248 -2.38124 11.9594
Spine1  12.3693 -2.25956 2.45277
HEad  -5.12457 3.05915 -6.13751
LeftShoulder1  9.2494 -12.5411 -50.3197
LeftArm  0.888016 12.0098 -28.8554
LeftForeArm  23.9899 -18.8752 -4.47504
LeftHand  -0.244104 0.0205437 5.32207
RightShoulder  6.52363 9.91334 42.332
RightArm  0.442389 -12.8333 29.2408
RightForeArm  -4.52735 17.6307 6.16964
RightHand  -1.17114 2.73638 -16.8507
LeftUpLeg  -7.21403 5.64035 8.28679
LeftLeg  66.8829 3.52187 9.70422
LeftFoot  4.20234 0.259273 -2.1226
LeftToes  3.81955e-011 1.3492e-010 1.36421e-011
101
root  -32.0136 39.6067 -4.62171 55.0328 -84.8946 -61.9797
RightUpLeg  -9.82931 -14.7856 5.29906
RightLeg  25.8907 -1.24113 -0.871172
RightFoot  -8.16525 0.0827083 -4.97053
RightToes  5.82063e-011 0 -3.6325e-017
Spine  2.95455 -1.50716 11.9318
Spine1  12.2268 -1.06393 1.52955
HEad  -4.7089 2.72302 -5.94542
LeftShoulder1  9.23181 -12.5235 -50.2794
LeftArm  -0.303731 14.6779 -29.9531
LeftForeArm  27.6213 -16.1928 -5.34068
LeftHand  -0.244104 0.0205437 5.32207
RightShoulder  6.52609 9.98449 42.1099
RightArm  5.78806 -9.5784 29.6879
RightForeArm  -7.04208 22.6192 5.41981
RightHand  -1.11725 2.37504 -16.8138
LeftUpLeg  -12.1459 6.71056 7.09436
LeftLeg  66.1875 3.02994 8.2383
LeftFoot  1.24545 0.212607 -1.99948
LeftToes  3.81955e-011 1.3492e-010 1.36421e-011
102
root  -33.5496 39.9008 -4.65483 62.3196 -85.6565 -69.2513
RightUpLeg  -6.20688 -15.1852 4.03771
RightLeg  24.1404 -0.0581652 0.179969
RightFoot  -9.08646 0.0278909 -4.55246
RightToes  5.82063e-011 0 -3.6325e-017
Spine  2.75521 -0.886504 12.2089
Spine1  12.2157 -0.168918 0.571979
HEad  -4.42621 2.94975 -6.14173
LeftShoulder1  9.26844 -12.5698 -50.3331
LeftArm  -1.39404 17.8546 -30.537
LeftForeArm  28.7226 -14.2454 -6.00238
LeftHand  -0.244104 0.0205437 5.32207
RightShoulder  6.45793 9.90487 41.904
RightArm  6.84627 -6.19293 29.9297
RightForeArm  -5.00069 27.4095 6.13608
RightHand  -1.10967 2.25479 -16.9564
LeftUpLeg  -16.3827 7.53889 5.96597
LeftLeg  62.5184 2.42592 5.70287
LeftFoot  -0.925096 0.179417 -1.90649
LeftToes  3.81955e-011 1.3492e-010 1.36421e-011
103
root  -35.0652 40.1679 -4.66325 76.4651 -86.2536 -83.4543
RightUpLeg  -2.45437 -14.218 2.70063
RightLeg  22.1353 0.211027 1.29663
RightFoot  -9.70472 -0.00140241 -4.49317
RightToes  5.82063e-011 0 -3.6325e-017
Spine  2.48681 -0.311109 12.4836
Spine1  12.4431 0.615759 -0.55728
HEad  -4.46816 3.28963 -6.57758
LeftShoulder1  9.35839 -12.6346 -50.6149
LeftArm  -2.41004 20.851 -30.6811
LeftForeArm  28.9894 -12.6025 -6.4752
LeftHand  -0.244104 0.0205437 5.32207
RightShoulder  6.39633 9.80262 41.8173
RightArm  7.00801 -2.77362 30.007
RightForeArm  -3.11621 32.1724 7.26996
RightHand  -1.02506 1.69016 -16.8887
LeftUpLeg  -19.418 8.76446 4.98426
LeftLeg  55.8903 2.25167 4.06471
LeftFoot  -3.09562 0.165999 -2.05769
LeftToes  3.81955e-011 1.3492e-010 1.36421e-011
104
root  -36.5462 40.3082 -4.65733 97.1165 -86.3654 -104.187
RightUpLeg  1.00948 -13.1935 1.67268
RightLeg  20.5219 0.713216 2.14922
RightFoot  -10.7297 -0.0493247 -4.21652
RightToes  5.82063e-011 0 -3.6325e-017
Spine  2.28794 0.195631 12.7152
Spine1  12.716 1.28697 -1.62968
HEad  -4.63043 3.66763 -6.97188
LeftShoulder1  9.38554 -12.6288 -50.7773
LeftArm  -3.65462 23.5964 -30.8976
LeftForeArm  30.0278 -11.129 -6.68518
LeftHand  -0.244104 0.0205437 5.32207
RightShoulder  6.38131 9.77342 41.8104
RightArm  7.13193 0.50776 30.0483
RightForeArm  -2.20857 36.4981 8.43288
RightHand  -0.869756 0.773341 -16.4321
LeftUpLeg  -21.1664 10.6407 4.32283
LeftLeg  46.4771 2.78568 3.5248
LeftFoot  -3.91911 0.201404 -2.73102
LeftToes  3.81955e-011 1.3492e-010 1.36421e-011
105
root  -38.018 40.2889 -4.62919 114.252 -85.7183 -121.294
RightUpLeg  3.84548 -12.5044 1.12304
RightLeg  19.7855 1.53641 2.65837
RightFoot  -12.0533 -0.104703 -3.70013
RightToes  5.82063e-011 0 -3.6325e-017
Spine  2.0822 0.555327 13.1682
Spine1  12.7653 1.78143 -2.56525
HEad  -4.7535 4.21989 -7.26265
LeftShoulder1  9.35616 -12.6146 -50.6646
LeftArm  -4.66549 26.2198 -31.3374
LeftForeArm  31.3889 -9.90715 -6.73115
LeftHand  -0.244104 0.0205437 5.32207
RightShoulder  6.3662 9.76692 41.7259
RightArm  7.24802 3.35282 30.3844
RightForeArm  -1.47651 39.9542 9.47391
RightHand  -0.7957 0.385453 -16.0357
LeftUpLeg  -21.7608 13.0108 3.89411
LeftLeg  34.7929 3.42732 3.00668
LeftFoot  -2.86526 0.271016 -3.42139
LeftToes  3.81955e-011 1.3492e-010 1.36421e-011
106
root  -39.4767 40.2352 -4.58039 126.2 -84.7136 -133.212
RightUpLeg  6.57459 -11.6891 0.803573
RightLeg  19.0055 2.31261 2.75506
RightFoot  -13.1174 -0.144218 -3.5435
RightToes  5.82063e-011 0 -3.6325e-017
Spine  2.00917 0.865275 13.5516
Spine1  12.6626 2.24748 -3.59535
HEad  -4.9363 4.96663 -7.5867
LeftShoulder1  9.33351 -12.6325 -50.4884
LeftArm  -5.16241 28.6595 -31.7473
LeftForeArm  32.1458 -9.03086 -6.75806
LeftHand  -0.244104 0.0205437 5.32207
RightShoulder  6.32805 9.75067 41.5118
RightArm  7.44061 5.62449 31.088
RightForeArm  -0.535441 42.3557 10.244
RightHand  -0.84958 0.723343 -16.1814
LeftUpLeg  -21.0725 15.3958 3.58834
LeftLeg  21.1867 3.64144 1.55377
LeftFoot  -0.899851 0.38455 -4.13624
LeftToes  3.81955e-011 1.3492e-010 1.36421e-011
107
root  -40.9326 40.144 -4.50757 135.663 -83.3937 -142.804
RightUpLeg  9.56659 -10.7517 0.463794
RightLeg  17.945 3.10854 2.59109
RightFoot  -14.4118 -0.188118 -3.4117
RightToes  5.82063e-011 0 -3.6325e-017
Spine  2.06946 1.1913 13.8699
Spine1  12.8236 2.83939 -4.80362
HEad  -5.30475 5.71799 -7.86917
LeftShoulder1  9.27423 -12.5854 -50.316
LeftArm  -5.5868 30.6318 -32.0383
LeftForeArm  32.3537 -8.41606 -6.71988
LeftHand  -0.244104 0.0205437 5.32207
RightShoulder  6.30741 9.75546 41.3498
RightArm  7.83129 7.49308 31.8721
RightForeArm  0.366419 43.6786 10.6732
RightHand  -0.919129 0.984812 -16.7981
LeftUpLeg  -18.8158 13.6083 5.29056
LeftLeg  6.7548 7.42792 -1.64017
LeftFoot  0.622827 0.549612 -5.28202
LeftToes  3.81955e-011 1.3492e-010 1.36421e-011
108
root  -42.4915 39.8559 -4.37907 139.687 -81.6768 -147.014
RightUpLeg  12.3461 -10.2548 0.123218
RightLeg  17.9779 4.34772 2.58105
RightFoot  -16.6153 -0.225173 -2.48524
RightToes  5.82063e-011 0 -3.6325e-017
Spine  1.70622 1.53723 14.8977
Spine1  13.4358 3.49865 -6.01666
HEad  -5.80725 6.16698 -7.84838
LeftShoulder1  9.14466 -12.463 -49.9953
LeftArm  -6.29013 31.8985 -32.3126
LeftForeArm  32.4672 -7.88906 -6.53136
LeftHand  -0.244104 0.0205437 5.32207
RightShoulder  6.3194 9.77131 41.3812
RightArm  8.29247 8.96404 32.4835
RightForeArm  1.10985 44.0014 10.7475
RightHand  -0.919398 0.788114 -17.3152
LeftUpLeg  -16.6072 7.01933 9.13363
LeftLeg  -4.13052 15.2364 -5.50801
LeftFoot  -0.235274 0.650725 -6.73184
LeftToes  3.81955e-011 1.3492e-010 1.36421e-011
109
root  -44.144 39.4593 -4.19568 140.856 -80.1146 -148.116
RightUpLeg  14.4445 -9.99339 -0.331187
RightLeg  19.1725 5.69045 2.62834
RightFoot  -18.5969 -0.194299 -1.06059
RightToes  5.82063e-011 0 -3.6325e-017
Spine  0.697379 1.93705 16.2161
Spine1  14.3708 4.16429 -7.10687
HEad  -6.36025 6.15324 -7.52354
LeftShoulder1  9.02813 -12.3896 -49.5883
LeftArm  -7.10307 32.5743 -32.4847
LeftForeArm  32.3784 -7.55653 -6.24558
LeftHand  -0.244104 0.0205437 5.32207
RightShoulder  6.33764 9.76709 41.5241
RightArm  8.59743 9.62059 32.8253
RightForeArm  1.69731 43.4941 10.5177
RightHand  -0.899288 0.657045 -17.2976
LeftUpLeg  -17.1229 7.70272 9.59648
LeftLeg  -5.89748 14.7987 -5.65119
LeftFoot  -2.87995 0.57381 -7.42615
LeftToes  3.81955e-011 1.3492e-010 1.36421e-011
110
root  -45.8095 39.1405 -4.00037 144.5 -79.232 -151.499
RightUpLeg  15.9372 -8.59179 -1.08884
RightLeg  20.7288 5.75833 2.28551
RightFoot  -19.6064 -0.0888869 0.585261
RightToes  5.82063e-011 0 -3.6325e-017
Spine  -0.382314 2.38034 16.2128
Spine1  15.3445 4.84175 -7.81001
HEad  -7.00658 5.87291 -7.14272
LeftShoulder1  8.93345 -12.298 -49.3523
LeftArm  -7.87546 32.898 -32.3239
LeftForeArm  31.6629 -7.64683 -5.95965
LeftHand  -0.244104 0.0205437 5.32207
RightShoulder  6.36544 9.74221 41.8042
RightArm  8.94976 9.21111 32.8136
RightForeArm  1.90769 42.1257 10.0068
RightHand  -0.928188 0.996588 -16.9297
LeftUpLeg  -17.687 7.65853 9.04226
LeftLeg  -3.63975 15.3146 -5.03451
LeftFoot  -1.46587 0.435926 -5.07001
LeftToes  3.81955e-011 1.3492e-010 1.36421e-011
